<?xml version="1.0" standalone="no"?>
<!DOCTYPE svg PUBLIC "-//W3C//DTD SVG 1.0//EN" "http://www.w3.org/TR/2001/REC-SVG-20010904/DTD/svg10.dtd">
<svg xmlns="http://www.w3.org/2000/svg" xmlns:xlink="http://www.w3.org/1999/xlink" id="body_1" width="100" height="70">

<g transform="matrix(0.083333336 0 0 0.11666667 0 0)">
    <path d="M0 0L1200 0L1200 600L0 600z" stroke="none" fill="#509E2F" fill-rule="nonzero" />
    <path d="M0 0L1200 0L1200 400L0 400z" stroke="none" fill="#EF3340" fill-rule="nonzero" />
    <path d="M0 0L1200 0L1200 200L0 200z" stroke="none" fill="#00B5E2" fill-rule="nonzero" />
    <path d="M660 300C 660 324.85284 651.2132 346.06604 633.6396 363.63962C 616.06604 381.2132 594.85284 390 570 390C 545.1472 390 523.93396 381.2132 506.36038 363.63962C 488.7868 346.06604 480 324.85284 480 300C 480 275.1472 488.7868 253.93399 506.36038 236.36038C 523.93396 218.7868 545.1472 210 570 210C 594.85284 210 616.06604 218.7868 633.6396 236.36038C 651.2132 253.93399 660 275.1472 660 300C 660 301.0473 659.98175 302.0943 659.9452 303.14096" stroke="none" fill="#FFFFFF" fill-rule="nonzero" />
    <path d="M665 300C 665 320.7107 657.6777 338.38837 643.033 353.03302C 628.38837 367.67767 610.7107 375 590 375C 569.2893 375 551.61163 367.67767 536.967 353.03302C 522.3223 338.38837 515 320.7107 515 300C 515 279.28934 522.3223 261.61166 536.967 246.967C 551.61163 232.32233 569.2893 225 590 225C 610.7107 225 628.38837 232.32233 643.033 246.967C 657.6777 261.61166 665 279.28934 665 300C 665 300.87277 664.9848 301.74527 664.95435 302.61746" stroke="none" fill="#EF3340" fill-rule="nonzero" />
    <path d="M670 250L679.567 276.903L705.35504 264.64502L693.09705 290.433L720 300L693.097 309.567L705.355 335.35498L679.56696 323.097L670 350L660.433 323.097L634.64496 335.35498L646.90295 309.567L620 300L646.903 290.433L634.645 264.64502L660.43304 276.903L670 250z" stroke="none" fill="#FFFFFF" fill-rule="nonzero" />
</g>
</svg>