<?xml version="1.0" standalone="no"?>
<!DOCTYPE svg PUBLIC "-//W3C//DTD SVG 1.0//EN" "http://www.w3.org/TR/2001/REC-SVG-20010904/DTD/svg10.dtd">
<svg xmlns="http://www.w3.org/2000/svg" xmlns:xlink="http://www.w3.org/1999/xlink" id="body_1" width="100" height="70">

<g transform="matrix(0.14285716 0 0 0.14000002 0 0)">
    <path d="M700 0L0 0L0 500L700 500L700 0z" stroke="none" fill="#E41E20" fill-rule="nonzero" />
	<g>
	</g>
	<g transform="matrix(1.25 0 0 1.25 301.57877 -2.283226)">
	</g>
	<g transform="matrix(9.999998 0 0 9.999998 600.00006 303.5355)">
		<g transform="matrix(0.09999899 0 0 0.09999899 -59.999657 -29.999743)">
			<g>
			</g>
			<g transform="matrix(1.25 0 0 1.25 301.57877 -2.283226)">
			</g>
		</g>
		<g transform="matrix(0.10000002 0 0 0.10000002 -60.00002 -30.000002)">
			<g>
			</g>
			<g transform="matrix(1.25 0 0 1.25 301.57877 -2.283226)">
			</g>
            <path d="M368.55597 368.18985C 364.25177 364.45728 359.03305 356.89856 359.10626 349.61316C 359.492 344.18033 363.2176 341.02448 365.62482 347.65573C 369.02814 354.9761 376.32794 367.08014 386.38654 359.97952C 390.78107 356.75375 390.7127 352.00504 384.68732 352.54932C 377.2459 352.03998 372.6756 347.94537 369.34552 337.40427C 368.74005 331.6069 371.15216 331.7517 374.51642 335.4818C 378.8426 340.44525 387.451 347.9454 396.94806 343.9257C 402.22638 341.71362 403.71564 337.1496 395.742 336.0261C 388.19318 336.1359 382.03107 331.2424 375.89825 323.77722C 372.534 319.64767 377.49493 315.47815 380.47345 318.99353C 383.1297 321.27554 386.8504 325.47998 390.03888 326.05923C 393.7254 326.78326 398.29572 326.42377 403.3592 323.74228C 408.81818 319.17328 407.04572 315.87762 400.41974 315.11865C 395.28302 315.37332 392.48517 317.32574 385.8592 312.9066C 373.95 304.8572 364.48224 294.10135 363.00275 281.1634C 362.03107 272.6546 366.60626 270.07797 370.40997 271.0567C 380.75665 273.7182 387.52423 293.05273 394.68243 303.6737C 397.02618 306.7347 399.1795 306.7846 400.70294 305.84088C 403.57404 303.37912 405.86703 301.3549 408.7381 298.60352C 408.7381 298.60352 429.79773 302.38663 441.26584 306.1247L441.26584 306.1247L428.49677 310.66278C 423.66202 307.9932 417.82635 310.8718 417.82635 315.5036C 413.25104 318.66782 413.61942 322.37653 415.59348 325.95694C 416.1956 323.46387 416.70935 320.22668 420.32343 319.7959C 425.48166 321.92953 431.49182 318.88464 431.49182 314.85602L431.49182 314.85602L446.55496 308.9357L461.77304 317.55115C 461.77304 323.37555 467.29147 325.22064 473.03244 323.6475C 475.73828 325.32785 477.4782 328.24286 478.39386 331.3603C 480.08862 326.8646 479.73453 323.69058 477.0814 321.4853C 478.6042 315.67328 470.45926 310.08386 464.15482 313.80618L464.15482 313.80618L453.20636 307.5196L471.94647 306.99487C 474.12018 310.84515 481.9817 311.05682 484.27493 306.99487C 486.23434 306.45798 487.89096 306.1163 491.71243 308.95685C 490.5082 304.36087 488.16483 302.3961 484.64996 302.3961C 481.97794 297.66318 472.31128 297.68542 470.9153 303.01328L470.9153 303.01328L451.3987 303.5563L462.97867 295.3112C 467.30142 297.86346 473.36646 295.02646 474.58136 290.3897C 476.30478 288.3415 478.42947 287.37903 482.6126 288.7692C 480.4568 284.95062 477.4194 283.81094 471.93253 286.4025C 466.92673 282.61072 460.3308 287.21042 461.3313 291.0288L461.3313 291.0288L445.9251 301.511C 434.74152 298.1746 414.4871 292.9779 414.4871 292.9779C 416.8992 290.44122 419.3455 288.08435 421.75272 285.51273C 422.62244 284.00635 421.29373 282.252 419.44803 281.8875C 401.37674 278.1574 391.03006 270.872 384.76053 252.3564C 382.13846 244.60162 387.8074 242.28468 389.75565 247.02841C 392.45096 253.62473 395.42456 260.83524 403.53983 266.41788C 406.33768 268.3753 414.66776 266.7774 409.741 262.10355C 404.63846 257.8991 402.4412 256.09146 399.92654 245.86993C 399.92654 240.69176 405.20486 238.36983 408.1492 243.33327C 411.2986 253.51485 411.62088 257.89908 417.324 264.46045C 421.6453 269.42392 427.28006 272.7595 430.0779 272.68463C 435.1121 272.61462 440.18045 267.17688 433.44705 263.22708C 423.55936 259.27728 419.94608 253.8794 418.491 248.73119C 416.8992 239.74797 418.63748 235.39874 424.0574 239.81792C 431.74295 248.55142 446.4158 264.81998 454.10135 272.39502C 462.71463 278.99133 472.59744 279.20605 480.46365 272.50482C 484.9656 267.32166 483.36893 261.744 476.31815 262.93744C 460.40994 264.28067 448.36404 256.38107 435.14627 235.0342C 432.55838 230.21553 431.85037 223.29465 437.55838 228.44287C 444.1453 237.35614 453.7498 244.93115 462.68045 248.19186C 471.6453 251.41263 479.0465 249.63327 481.91873 246.81369C 485.37756 243.35487 484.46756 234.63972 478.48123 236.74196C 473.55447 238.47966 466.6111 238.9141 459.38455 236.12277C 452.1531 233.2965 444.64334 227.20952 436.6697 216.88312C 433.94022 211.05081 434.8289 206.1223 440.35623 209.12834C 453.4324 220.21873 470.29764 229.20189 478.90604 223.80402C 485.2488 219.8542 485.35623 209.70758 477.31424 210.36171C 461.11795 212.5688 454.99002 208.98354 439.43338 195.25162C 435.89334 192.60512 436.13748 185.89894 441.77225 190.17831C 454.84842 198.62218 472.70486 201.91785 479.72147 197.49867C 486.03006 193.54887 485.1072 181.47977 474.47733 185.75414C 465.97147 190.93732 456.58182 190.79251 437.76834 177.35022C 433.02225 173.40044 436.5623 168.2522 440.45877 170.4643C 455.5906 179.08794 477.63162 182.78307 483.36893 165.24617C 485.60037 158.54498 481.5623 154.63016 475.64432 159.26904C 462.6414 171.29822 447.90018 165.391 439.64822 159.33905C 437.28494 157.94588 432.949 150.89517 440.5662 152.20345C 460.2683 156.69753 479.75565 152.78267 483.30057 138.83107C 485.35623 134.30202 481.31326 126.29259 474.12088 132.99873C 464.66287 142.34644 454.63358 142.67105 442.02127 142.60109C 435.60526 141.25786 435.5369 134.19215 440.92264 133.14354C 450.87872 133.35826 460.69315 129.009 468.55936 124.58982C 476.2498 120.17063 482.62674 113.9738 484.64822 105.38511C 485.88846 97.70522 478.48123 89.55097 474.01834 97.70522C 467.42657 109.62453 452.82693 120.859726 436.59647 122.88705C 435.75174 121.47393 433.62283 117.848694 431.00076 118.86735C 426.23514 120.71492 420.55643 123.1879 414.70987 125.96425C 402.10745 131.94875 396.85495 134.83292 398.36893 145.1727C 399.94867 155.96165 391.63065 162.7795 384.76053 160.89699C 378.76932 159.2841 375.46365 153.87123 376.53787 144.48361C 377.39725 137.00345 384.907 127.95537 393.36893 123.211624C 398.84744 120.14566 407.11893 118.467865 417.07498 116.25578C 423.13455 115.06236 426.2205 112.70546 426.57205 110.238716C 426.57205 110.238716 422.43143 113.26973 415.80057 112.81532C 412.6658 112.590614 410.5662 111.21243 409.77518 109.80428C 412.07986 109.33486 416.25955 109.87918 420.01443 109.87918C 425.00955 109.83918 436.60623 108.7207 439.6824 101.68996C 440.63943 97.05107 437.59256 96.21716 434.75565 99.18826C 431.70877 102.399025 430.4539 105.285225 424.3406 106.36381C 420.6199 107.017944 416.8992 107.77695 412.11404 106.61847C 414.80936 103.41769 419.09158 100.142 422.74393 100.74621C 423.9451 100.945946 425.54178 102.05449 426.82108 104.04686C 427.60233 98.97353 426.2156 93.246086 412.64627 95.63794C 412.8611 91.798 404.78006 90.1302 399.92654 90.2051C 397.16287 90.27501 391.5281 91.90786 387.4558 93.860275C 381.0056 95.85765 374.6287 97.30575 367.11404 97.85002C 371.4744 101.58012 372.28983 101.799835 376.6453 104.950676C 370.05838 107.41244 364.9558 112.485756 362.65115 115.82136C 362.65115 115.82136 370.34158 115.606636 372.28983 116.47551C 364.24295 118.8274 360.62967 120.24054 356.37674 124.58982C 357.866 124.84447 360.09747 125.27891 361.05447 125.64342C 362.05054 126.002945 361.79175 126.65709 360.98608 127.27127C 359.2527 128.59454 352.0899 136.91357 350 138.90594C 347.9101 136.91359 340.7473 128.59454 339.01392 127.27127C 338.20825 126.65709 337.94943 126.00295 338.94553 125.64342C 339.90256 125.27891 342.134 124.84447 343.62326 124.58982C 339.37033 120.24054 335.75705 118.8274 327.71017 116.47551C 329.65842 115.606636 337.34885 115.82136 337.34885 115.82136C 335.04416 112.485756 329.94162 107.41244 323.3547 104.950676C 327.71017 101.799835 328.5256 101.58012 332.88596 97.85002C 325.3713 97.30575 318.99435 95.85765 312.5442 93.860275C 308.47192 91.90786 302.83716 90.27501 300.07346 90.2051C 295.21994 90.1302 287.1389 91.798004 287.35373 95.63794C 273.7844 93.246086 272.39767 98.97353 273.17892 104.04686C 274.45822 102.05449 276.0549 100.94595 277.25607 100.74621C 280.90842 100.142 285.19064 103.41769 287.88596 106.61847C 283.1008 107.77695 279.3801 107.01795 275.6594 106.36381C 269.5461 105.285225 268.29123 102.399025 265.24435 99.18826C 262.40744 96.21716 259.36057 97.05107 260.3176 101.68996C 263.39377 108.720695 274.99045 109.83918 279.98557 109.87918C 283.74045 109.87918 287.92014 109.33486 290.22482 109.80428C 289.4338 111.21243 287.3342 112.590614 284.19943 112.81532C 277.56857 113.26972 273.42795 110.238716 273.42795 110.238716C 273.7795 112.70547 276.86545 115.06236 282.92502 116.25578C 292.88107 118.467865 301.15256 120.14566 306.63107 123.211624C 315.093 127.955376 322.60275 137.00345 323.46213 144.48361C 324.53635 153.87122 321.23068 159.2841 315.23947 160.89699C 308.36935 162.7795 300.05133 155.96165 301.63107 145.1727C 303.14505 134.83292 297.89255 131.94875 285.29013 125.96425C 279.44357 123.1879 273.76486 120.71492 268.99924 118.86735C 266.37717 117.848694 264.24826 121.47393 263.40353 122.88705C 247.17307 120.859726 232.57344 109.62453 225.98166 97.70522C 221.51875 89.55097 214.11153 97.70522 215.35178 105.38511C 217.37326 113.9738 223.75021 120.17063 231.44064 124.58982C 239.30685 129.009 249.1213 133.35826 259.07736 133.14354C 264.4631 134.19215 264.39474 141.25786 257.97873 142.60109C 245.36642 142.67099 235.33713 142.34644 225.87912 132.99873C 218.68674 126.29259 214.64377 134.30202 216.69943 138.83107C 220.24435 152.78268 239.73167 156.69753 259.4338 152.20345C 267.051 150.89517 262.71506 157.94588 260.35178 159.33905C 252.09982 165.391 237.35861 171.29823 224.35568 159.26904C 218.43773 154.63016 214.39963 158.545 216.63109 165.24617C 222.3684 182.78307 244.4094 179.08794 259.54123 170.4643C 263.4377 168.2522 266.97775 173.40044 262.23166 177.35022C 243.41817 190.79251 234.02853 190.93732 225.52267 185.75414C 214.89279 181.47977 213.96994 193.54887 220.27853 197.49867C 227.29514 201.91785 245.15158 198.62218 258.22775 190.17831C 263.86252 185.89894 264.10666 192.60512 260.56662 195.25162C 245.00998 208.98354 238.88205 212.5688 222.68576 210.36172C 214.64377 209.70758 214.75117 219.85422 221.09396 223.80403C 229.70236 229.2019 246.5676 220.21875 259.64377 209.12836C 265.1711 206.12231 266.05978 211.05081 263.3303 216.88313C 255.35667 227.20953 247.8469 233.29651 240.61545 236.12279C 233.38889 238.91412 226.44553 238.47968 221.51877 236.74197C 215.53244 234.63974 214.62245 243.35489 218.08127 246.8137C 220.95348 249.63329 228.3547 251.41264 237.31955 248.19188C 246.25021 244.93117 255.8547 237.35616 262.44162 228.44289C 268.14963 223.29468 267.44162 230.21556 264.85373 235.03421C 251.63596 256.38107 239.59006 264.28067 223.68185 262.93744C 216.63109 261.74402 215.0344 267.32166 219.53635 272.50482C 227.40254 279.20605 237.28537 278.99133 245.89865 272.39502C 253.5842 264.81998 268.25705 248.55142 275.9426 239.81793C 281.36252 235.39876 283.1008 239.74803 281.509 248.7312C 280.05392 253.87941 276.44064 259.2773 266.55295 263.2271C 259.81955 267.1769 264.8879 272.61465 269.9221 272.68466C 272.71994 272.75955 278.3547 269.42395 282.676 264.46048C 288.37912 257.89914 288.7014 253.5149 291.8508 243.33331C 294.79514 238.36986 300.07346 240.69179 300.07346 245.86998C 297.5588 256.09152 295.36154 257.89914 290.259 262.10358C 285.33224 266.7774 293.66232 268.3753 296.46017 266.4179C 304.5754 260.83527 307.54904 253.62477 310.24435 247.02844C 312.1926 242.2847 317.86154 244.60165 315.23947 252.35641C 308.96994 270.87204 298.62326 278.15744 280.55197 281.8875C 278.70627 282.252 277.37756 284.00635 278.24728 285.51273C 280.6545 288.08435 283.1008 290.44122 285.5129 292.9779C 285.5129 292.9779 265.25848 298.1746 254.07487 301.511L254.07487 301.511L238.66867 291.0288C 239.66914 287.21042 233.07326 282.61072 228.06744 286.4025C 222.5806 283.81094 219.5432 284.9506 217.38737 288.7692C 221.57051 287.379 223.69522 288.34146 225.41862 290.3897C 226.63353 295.0265 232.69856 297.8635 237.02133 295.3112L237.02133 295.3112L248.60129 303.5563L229.08469 303.01328C 227.68872 297.68542 218.02206 297.66318 215.35004 302.3961C 211.83516 302.3961 209.49178 304.36084 208.28757 308.95685C 212.10904 306.11633 213.76567 306.45798 215.72508 306.99487C 218.0183 311.05682 225.87982 310.84515 228.05353 306.99487L228.05353 306.99487L246.79364 307.5196L235.84518 313.80618C 229.54074 310.08386 221.3958 315.67328 222.91861 321.4853C 220.26549 323.69058 219.91138 326.8646 221.60616 331.3603C 222.5218 328.24283 224.26173 325.32782 226.96759 323.6475C 232.70856 325.2206 238.22699 323.37555 238.22699 317.55115L238.22699 317.55115L253.44505 308.9357L268.50818 314.85602C 268.50818 318.88464 274.51834 321.92953 279.67657 319.7959C 283.29065 320.22665 283.80444 323.46387 284.40652 325.95694C 286.38058 322.37653 286.749 318.66782 282.17365 315.5036C 282.17365 310.87183 276.33798 307.9932 271.50323 310.66278L271.50323 310.66278L258.73416 306.1247C 270.20227 302.38666 291.2619 298.60352 291.2619 298.60352C 294.133 301.35492 296.42596 303.37915 299.29706 305.84088C 300.8205 306.78464 302.97382 306.7347 305.31757 303.6737C 312.47577 293.0527 319.24335 273.71817 329.59003 271.0567C 333.39374 270.07797 337.96893 272.6546 336.99725 281.1634C 335.51776 294.10135 326.05 304.85718 314.1408 312.90656C 307.51483 317.3257 304.71698 315.3733 299.58026 315.11862C 292.95428 315.87762 291.18182 319.17328 296.6408 323.74225C 301.70428 326.4237 306.2746 326.78323 309.96112 326.0592C 313.1496 325.47995 316.8703 321.2755 319.52655 318.9935C 322.50507 315.47812 327.466 319.64764 324.10175 323.7772C 317.96893 331.24234 311.80682 336.13586 304.258 336.02606C 296.28436 337.1496 297.77362 341.7136 303.05194 343.92566C 312.549 347.94537 321.1574 340.44525 325.48358 335.48178C 328.84784 331.75168 331.25995 331.60687 330.65448 337.40424C 327.3244 347.94537 322.7541 352.03998 315.31268 352.5493C 309.2873 352.005 309.21893 356.75372 313.61346 359.9795C 323.67206 367.08014 330.97186 354.97607 334.37518 347.6557C 336.7824 341.02444 340.508 344.1803 340.89374 349.61313C 340.96695 356.89853 335.74823 364.4572 331.44403 368.18982C 327.13983 371.92242 350 395.65527 350 395.65527C 350 395.65527 372.86017 371.92242 368.55597 368.18982L368.55597 368.18982L368.55597 368.18985zM399.1907 99.43101C 395.63223 99.43101 393.43396 100.678444 393.43396 102.19061C 393.43396 103.72521 395.63223 104.977135 399.1907 104.977135C 402.72723 104.977135 404.9738 103.613045 404.9738 102.073944C 404.9738 100.561775 402.72723 99.43101 399.1907 99.43101zM300.8093 99.43101C 304.36777 99.43101 306.56604 100.678444 306.56604 102.19061C 306.56604 103.72521 304.36777 104.977135 300.8093 104.977135C 297.27277 104.977135 295.0262 103.613045 295.0262 102.073944C 295.0262 100.561775 297.27277 99.43101 300.8093 99.43101z" stroke="none" fill="#000000" fill-rule="nonzero" />
		</g>
	</g>
</g>
</svg>